PathFileType	4	(X/Y/Z)	28_2_85_p0_0-325.trc
DataRate	CameraRate	NumFrames	NumMarkers	Units	OrigDataRate	OrigDataStartFrame	OrigNumFrames
53.0	53.0	6	27	m	53.0	285	326
Frame#	Time	RHip			RKnee			RAnkle			RBigToe			RSmallToe			RHeel			LHip			LKnee			LAnkle			LBigToe			LSmallToe			LHeel			Neck			Head			Nose			RShoulder			RElbow			RWrist			RThumb			RIndex			RPinky			LShoulder			LElbow			LWrist			LThumb			LIndex			LPinky			
		X1	Y1	Z1	X2	Y2	Z2	X3	Y3	Z3	X4	Y4	Z4	X5	Y5	Z5	X6	Y6	Z6	X7	Y7	Z7	X8	Y8	Z8	X9	Y9	Z9	X10	Y10	Z10	X11	Y11	Z11	X12	Y12	Z12	X13	Y13	Z13	X14	Y14	Z14	X15	Y15	Z15	X16	Y16	Z16	X17	Y17	Z17	X18	Y18	Z18	X19	Y19	Z19	X20	Y20	Z20	X21	Y21	Z21	X22	Y22	Z22	X23	Y23	Z23	X24	Y24	Z24	X25	Y25	Z25	X26	Y26	Z26	X27	Y27	Z27	
285	5.377358490566038	0.21803973335727417	0.7623526154579449	1.0685244134766676	0.22576859877748098	0.7161927465113261	1.4022415270352808	0.24982938639071417	1.0643200807873336	1.7401891270978516	0.19659720514641943	0.9510142572642396	1.824619404251823	0.27003856074976423	0.9275566436208214	1.8030508610819296	0.23692751631249065	1.1632079293022397	1.7765290974890733	0.038095656763181274	0.7057471595956912	1.0804985989119618	0.03345628623550531	0.7930695415047816	1.4152562903152979	0.052533312520727155	1.0892730620151443	1.7715837358316024	0.03616188122825471	0.9156907755198969	1.83049631759704	-0.02291383617676179	0.9530340692632705	1.8150249522226145	0.07168536973868594	1.2071728004765507	1.8037669210756908	0.11560167585479952	0.5105967518094794	0.5930033226144369	0.1185410957077635	0.3674768062441665	0.39091868408657426	0.1323105686224852	0.36681796651037013	0.5044842680612347	0.2737333891880209	0.5620079600506032	0.6655725898425237	0.3141670046571592	0.6266003863128201	0.9047104906188664	0.4020666704518993	0.5552305234625112	1.0895870785128081	0.4707934736016226	0.4516347087334071	1.1495946372822075	0.486136893332029	0.47898624118430316	1.1618685583955135	0.4760039037412291	0.5659266143122883	1.1585675669778581	-0.020035253332774627	0.5504499626793805	0.655604489211771	-0.06038933552997213	0.6456011892858379	0.902661529810128	-0.14379186080052014	0.5661435242712874	1.0885708701019876	-0.1792496937668399	0.4903742892698733	1.1657944914024416	-0.20797035286568033	0.5038040829305864	1.1755217341516333	-0.19696629494262705	0.6317657289648063	1.175256440076521
286	5.39622641509434	0.22132234095811995	0.7470867676737634	1.068196010818331	0.22666695676511367	0.7191328827600908	1.4028216391392385	0.2544242037097254	1.0647902853708553	1.739747925892584	0.19567557733478505	0.9481846186157303	1.8200508730825147	0.27232881944555115	0.921727893241699	1.7970124856907368	0.2452932792097821	1.1431376974808785	1.771970677553346	0.03792160796317494	0.7060952401715404	1.080775744486545	0.028213673777960115	0.7917906362882381	1.4046811465825129	0.05083412878051811	1.0864882726128373	1.762711594140074	0.03613986972753247	0.9165748096633665	1.8305011788397594	-0.019032107329291153	0.968843567100893	1.8104271986199545	0.07316957867655582	1.2049660741500237	1.7982363661392966	0.11555590672484055	0.5101977534645113	0.5932587278349231	0.12189068956798416	0.35484570694926815	0.39105068487444417	0.1319315364871564	0.3441742909308124	0.5094123233017835	0.2692641678746422	0.5504628407187295	0.6674697511395227	0.3019713157501294	0.6737104931775758	0.897753109473441	0.38511766449971274	0.5851389863813697	1.1135673456176423	0.43029241357287334	0.47245385540163215	1.181654737309343	0.46476442491075687	0.49286333512087566	1.195340929542771	0.429967688133039	0.5946807398939361	1.190971103301764	-0.01652258946788528	0.5510298536141702	0.65164109147006	-0.04929578901601401	0.6747282984238928	0.9000768120398533	-0.11944220293179084	0.6061830649821158	1.1093104821114605	-0.14441669002366694	0.5705963726883009	1.1967198972733635	-0.16094921784973842	0.5810324993212929	1.2272734657388014	-0.1674169095757875	0.6634495477169182	1.2097154144261255
287	5.415094339622642	0.2200827458156026	0.7168712137847044	1.0644211578737912	0.23554570740276615	0.7316244052102964	1.4024555333844544	0.2529715064581774	1.060933489870177	1.7347600983984746	0.18984988441072387	0.9483287400150477	1.825006911131016	0.2766149972130525	0.9380669007860726	1.8092016949285636	0.24901575801358117	1.126928907257444	1.7694277501509386	0.03747233943217824	0.7046443253704375	1.0768573378253097	0.037679473483314276	0.7944582258310139	1.4151170720613844	0.05110025194062508	1.0850250300235933	1.762195268227932	0.036097604965698415	0.9166057611241242	1.8305412170102118	-0.02309244323111484	0.954218545989232	1.815436816290545	0.06809464250327672	1.1867595418467753	1.7992639378825828	0.11549586976274427	0.5096754171379798	0.5933387774375501	0.1251984974651755	0.34231755850654544	0.3936598256978372	0.1316490026125583	0.3424754306384574	0.5063241293000896	0.2686136828515033	0.5490677533052348	0.6635565222293929	0.2940754948401559	0.6786466543983075	0.9025845625098986	0.3431621338625611	0.634499148491688	1.1241419934818513	0.36548794387411027	0.541844614607859	1.222862611580726	0.41081101122992647	0.5938262238609883	1.2397401980640275	0.4127072263675679	0.6352649428667866	1.2278273330238425	-0.017484066977169803	0.5473550272483252	0.6410362065742691	-0.046555807712265904	0.6861017092481898	0.890908214239676	-0.07821617210642298	0.6857118269987085	1.1086071859591728	-0.052071648664073794	0.6785956414778724	1.2150063457082632	-0.08834491193299007	0.6886254849372174	1.2445987880965472	-0.11280709414201844	0.681935133202634	1.232592987139657
288	5.433962264150943	0.21768416654121167	0.7312950557877413	1.0597279512213789	0.2416505871103761	0.7418513598833465	1.394195956055366	0.2528862035128499	1.0609425309823302	1.734921166685783	0.19087684695058185	0.9510242754133601	1.829627751114708	0.2813686229531739	0.9397046574455583	1.8095515945438978	0.243902391330461	1.1269990281077966	1.7703497404303992	0.035194015179366565	0.6985011869833964	1.0647731433680026	0.036448404910030784	0.7947350372823534	1.4084316227136788	0.05054903102750092	1.0838390310208494	1.7622970236992754	0.03616647628566816	0.9163941959343419	1.830871423807299	-0.021181515406082246	0.9554680020171045	1.8161385872642544	0.07214501245885065	1.2038620665882824	1.80222917629918	0.11513897878865186	0.5087987660216751	0.5896199755005262	0.12860609339569815	0.3392863723870446	0.3868126218312359	0.1309893845102883	0.3402605516117265	0.49999373229390737	0.2634647566197754	0.5333594081415811	0.658572708881337	0.29038462141003546	0.6686451267352936	0.9071942370464567	0.33119269795864664	0.6265736408101222	1.1289650169868928	0.33738006662964054	0.5739085353587954	1.226422572152378	0.38677297672095495	0.5956974301258772	1.2551199026856636	0.4005469379792478	0.6247777505221064	1.2430423540980446	-0.013934232623337659	0.5460032229239802	0.6366822419684385	-0.04360258930252849	0.6996705789734333	0.8853261010434759	-0.058802110551446705	0.6929058621707687	1.1147822742561064	-0.019979736417862902	0.6402968188176552	1.2130189070314208	-0.0444029252806002	0.6787813752959779	1.229796323985234	-0.07587114904739212	0.7272443248201476	1.2260156771650748
289	5.452830188679245	0.22086778484372183	0.7136802808454178	1.0563195516950565	0.24204422831186684	0.7737725785364288	1.3971483618169689	0.2531171448491267	1.0608921698155633	1.7348267626916845	0.19556079298829837	0.9533745010680466	1.8298633688661932	0.2768475699868645	0.9256234098114635	1.8066553069815354	0.24432140569559396	1.1263076697875127	1.7736200359445256	0.0337183858632015	0.7088150554163828	1.057508006960571	0.030987455349392092	0.8069066548739998	1.3962560219357982	0.050311670578911914	1.085040000692879	1.762530211662961	0.04208941698941118	0.9340158621787235	1.8346114142152063	-0.022016592980851235	0.9565011276727018	1.8126881338246856	0.07320414121484183	1.2027167650784576	1.7976563521523574	0.11441423152067522	0.4807641480221318	0.5872600844317295	0.12777083720840485	0.3264239485814664	0.3834422870390793	0.1300090186693867	0.3350978545226208	0.4904794488058669	0.2666799513753503	0.5208212075146214	0.6600799090999121	0.2872505681808081	0.6552964328344534	0.9076584867944563	0.3101537266123091	0.6600500762993359	1.133851857267403	0.3022736224047589	0.6370362289807336	1.2369070796153183	0.33459433367870167	0.654595292270262	1.2649371654749084	0.3612418858336257	0.7383587053031421	1.2605249473585154	-0.021481713480889234	0.516478458234663	0.6346573740391607	-0.04396669437973775	0.6954666376031305	0.8782052156756396	-0.048050289134156	0.7206744053153822	1.0935199525567805	0.0010880172153467777	0.6681374036147308	1.1965583369252013	-0.017359194988192675	0.6536050415305003	1.213341295951446	-0.06143355212555537	0.7436727641294885	1.193504846745494
290	5.471698113207547	0.2209017342065054	0.7117164831672911	1.053675363064359	0.23407412540729108	0.7761830839820958	1.4055678233071134	0.25465683432148895	1.0644491315275035	1.7399239524704198	0.19653846957309398	0.9506784177718777	1.824753612004165	0.27459138204647854	0.9413530251417999	1.8059839691373438	0.24489294380913842	1.1255575537662625	1.7732302367086796	0.0346902956630066	0.7091220530531498	1.0516416635700774	0.041373311199798535	0.8245003515928144	1.4057315859536423	0.050796703279247866	1.0855630550927557	1.762392752284747	0.041345964817696514	0.9354239223986858	1.8387564033548485	-0.021114938879087154	0.9560278309853583	1.8162252435002906	0.0693130265590605	1.1861751486449659	1.7945872548837616	0.11353862108379005	0.476541088693291	0.5767605128557953	0.13521110301279693	0.3255966700849274	0.38279168634588573	0.13022548553262012	0.3354499048537858	0.4903551665410575	0.2611395676466015	0.5062153518703212	0.6551367123506345	0.27949033173188825	0.6503221192631181	0.9005153986218697	0.2838135512114764	0.6938130348245687	1.1323750730030588	0.27654593094614977	0.7135434010576499	1.2371598911214916	0.31321911848171663	0.671147470191089	1.256150485967771	0.3408986246047584	0.7695987130022284	1.2430700328514095	-0.02154646435044379	0.5155853131095823	0.6344657318007854	-0.04400051549789908	0.6936632602320035	0.8705697377277368	-0.029541405156186782	0.7605839843264725	1.0832906242836082	0.004000985929911958	0.6808012551075331	1.1848267093979414	-0.02328079904348147	0.6661801375793327	1.2011946066992063	-0.04697289794599353	0.7975331776917449	1.1765866498901252
